<mxfile host="app.diagrams.net" agent="Mozilla/5.0 (X11; Ubuntu; Linux x86_64; rv:131.0) Gecko/20100101 Firefox/131.0" version="24.8.2">
  <diagram name="Page-1" id="PE8oCWkEfJtm7cLgUN0R">
    <mxGraphModel dx="2189" dy="795" grid="0" gridSize="10" guides="1" tooltips="1" connect="1" arrows="1" fold="1" page="1" pageScale="1" pageWidth="827" pageHeight="1169" math="0" shadow="0">
      <root>
        <mxCell id="0" />
        <mxCell id="1" parent="0" />
        <mxCell id="Yn5l3yU3Dwj1GDGnISw3-5" value="" style="shape=umlLifeline;perimeter=lifelinePerimeter;whiteSpace=wrap;html=1;container=1;dropTarget=0;collapsible=0;recursiveResize=0;outlineConnect=0;portConstraint=eastwest;newEdgeStyle={&quot;curved&quot;:0,&quot;rounded&quot;:0};participant=umlActor;fillColor=#d5e8d4;strokeColor=#82b366;" vertex="1" parent="1">
          <mxGeometry x="60" y="40" width="20" height="790" as="geometry" />
        </mxCell>
        <mxCell id="Yn5l3yU3Dwj1GDGnISw3-6" value="&lt;b&gt;App&lt;/b&gt;" style="shape=umlLifeline;perimeter=lifelinePerimeter;whiteSpace=wrap;html=1;container=1;dropTarget=0;collapsible=0;recursiveResize=0;outlineConnect=0;portConstraint=eastwest;newEdgeStyle={&quot;curved&quot;:0,&quot;rounded&quot;:0};fillColor=#d5e8d4;strokeColor=#82b366;" vertex="1" parent="1">
          <mxGeometry x="260" y="40" width="100" height="800" as="geometry" />
        </mxCell>
        <mxCell id="Yn5l3yU3Dwj1GDGnISw3-7" value="" style="html=1;points=[[0,0,0,0,5],[0,1,0,0,-5],[1,0,0,0,5],[1,1,0,0,-5]];perimeter=orthogonalPerimeter;outlineConnect=0;targetShapes=umlLifeline;portConstraint=eastwest;newEdgeStyle={&quot;curved&quot;:0,&quot;rounded&quot;:0};" vertex="1" parent="Yn5l3yU3Dwj1GDGnISw3-6">
          <mxGeometry x="45" y="70" width="10" height="40" as="geometry" />
        </mxCell>
        <mxCell id="Yn5l3yU3Dwj1GDGnISw3-15" value="" style="html=1;points=[[0,0,0,0,5],[0,1,0,0,-5],[1,0,0,0,5],[1,1,0,0,-5]];perimeter=orthogonalPerimeter;outlineConnect=0;targetShapes=umlLifeline;portConstraint=eastwest;newEdgeStyle={&quot;curved&quot;:0,&quot;rounded&quot;:0};" vertex="1" parent="Yn5l3yU3Dwj1GDGnISw3-6">
          <mxGeometry x="50" y="130" width="10" height="50" as="geometry" />
        </mxCell>
        <mxCell id="Yn5l3yU3Dwj1GDGnISw3-16" value="Routes to admin dashboard" style="html=1;align=left;spacingLeft=2;endArrow=block;rounded=0;edgeStyle=orthogonalEdgeStyle;curved=0;rounded=0;" edge="1" target="Yn5l3yU3Dwj1GDGnISw3-15" parent="Yn5l3yU3Dwj1GDGnISw3-6">
          <mxGeometry relative="1" as="geometry">
            <mxPoint x="55" y="110" as="sourcePoint" />
            <Array as="points">
              <mxPoint x="85" y="140" />
            </Array>
          </mxGeometry>
        </mxCell>
        <mxCell id="Yn5l3yU3Dwj1GDGnISw3-25" value="" style="html=1;points=[[0,0,0,0,5],[0,1,0,0,-5],[1,0,0,0,5],[1,1,0,0,-5]];perimeter=orthogonalPerimeter;outlineConnect=0;targetShapes=umlLifeline;portConstraint=eastwest;newEdgeStyle={&quot;curved&quot;:0,&quot;rounded&quot;:0};" vertex="1" parent="Yn5l3yU3Dwj1GDGnISw3-6">
          <mxGeometry x="45" y="273" width="10" height="27" as="geometry" />
        </mxCell>
        <mxCell id="Yn5l3yU3Dwj1GDGnISw3-29" value="" style="html=1;points=[[0,0,0,0,5],[0,1,0,0,-5],[1,0,0,0,5],[1,1,0,0,-5]];perimeter=orthogonalPerimeter;outlineConnect=0;targetShapes=umlLifeline;portConstraint=eastwest;newEdgeStyle={&quot;curved&quot;:0,&quot;rounded&quot;:0};" vertex="1" parent="Yn5l3yU3Dwj1GDGnISw3-6">
          <mxGeometry x="45" y="353" width="10" height="27" as="geometry" />
        </mxCell>
        <mxCell id="Yn5l3yU3Dwj1GDGnISw3-8" value="Login" style="html=1;verticalAlign=bottom;startArrow=oval;endArrow=block;startSize=8;curved=0;rounded=0;" edge="1" parent="1">
          <mxGeometry relative="1" as="geometry">
            <mxPoint x="65.5" y="120" as="sourcePoint" />
            <mxPoint x="305" y="120" as="targetPoint" />
          </mxGeometry>
        </mxCell>
        <mxCell id="Yn5l3yU3Dwj1GDGnISw3-18" value="Create new project" style="html=1;verticalAlign=bottom;startArrow=oval;endArrow=block;startSize=8;curved=0;rounded=0;" edge="1" target="Yn5l3yU3Dwj1GDGnISw3-15" parent="1" source="Yn5l3yU3Dwj1GDGnISw3-5">
          <mxGeometry x="0.0021" relative="1" as="geometry">
            <mxPoint x="70" y="225" as="sourcePoint" />
            <mxPoint x="140" y="225" as="targetPoint" />
            <Array as="points">
              <mxPoint x="190" y="200" />
            </Array>
            <mxPoint as="offset" />
          </mxGeometry>
        </mxCell>
        <mxCell id="Yn5l3yU3Dwj1GDGnISw3-19" value="Alt" style="shape=umlFrame;whiteSpace=wrap;html=1;pointerEvents=0;fillColor=#E7FFCC;" vertex="1" parent="1">
          <mxGeometry y="290" width="829" height="230" as="geometry" />
        </mxCell>
        <mxCell id="Yn5l3yU3Dwj1GDGnISw3-20" value="&lt;b&gt;Vimeo&lt;/b&gt;" style="shape=umlLifeline;perimeter=lifelinePerimeter;whiteSpace=wrap;html=1;container=1;dropTarget=0;collapsible=0;recursiveResize=0;outlineConnect=0;portConstraint=eastwest;newEdgeStyle={&quot;curved&quot;:0,&quot;rounded&quot;:0};fillColor=#d5e8d4;strokeColor=#82b366;" vertex="1" parent="1">
          <mxGeometry x="719" y="40" width="100" height="790" as="geometry" />
        </mxCell>
        <mxCell id="Yn5l3yU3Dwj1GDGnISw3-21" value="&lt;b&gt;DB&lt;/b&gt;" style="shape=umlLifeline;perimeter=lifelinePerimeter;whiteSpace=wrap;html=1;container=1;dropTarget=0;collapsible=0;recursiveResize=0;outlineConnect=0;portConstraint=eastwest;newEdgeStyle={&quot;curved&quot;:0,&quot;rounded&quot;:0};fillColor=#d5e8d4;strokeColor=#82b366;" vertex="1" parent="1">
          <mxGeometry x="550" y="40" width="100" height="800" as="geometry" />
        </mxCell>
        <mxCell id="Yn5l3yU3Dwj1GDGnISw3-24" value="" style="line;strokeWidth=1;fillColor=none;align=left;verticalAlign=middle;spacingTop=-1;spacingLeft=3;spacingRight=3;rotatable=0;labelPosition=right;points=[];portConstraint=eastwest;strokeColor=inherit;" vertex="1" parent="1">
          <mxGeometry y="347" width="829" height="46" as="geometry" />
        </mxCell>
        <mxCell id="Yn5l3yU3Dwj1GDGnISw3-26" value="Upload an image" style="html=1;verticalAlign=bottom;startArrow=oval;endArrow=block;startSize=8;curved=0;rounded=0;" edge="1" parent="1">
          <mxGeometry relative="1" as="geometry">
            <mxPoint x="70" y="318" as="sourcePoint" />
            <mxPoint x="309.5" y="318" as="targetPoint" />
          </mxGeometry>
        </mxCell>
        <mxCell id="Yn5l3yU3Dwj1GDGnISw3-28" value="Stores as an ImageAsset" style="html=1;verticalAlign=bottom;startArrow=oval;endArrow=block;startSize=8;curved=0;rounded=0;" edge="1" parent="1">
          <mxGeometry relative="1" as="geometry">
            <mxPoint x="310" y="340" as="sourcePoint" />
            <mxPoint x="599.5" y="340" as="targetPoint" />
          </mxGeometry>
        </mxCell>
        <mxCell id="Yn5l3yU3Dwj1GDGnISw3-30" value="Upload a sound" style="html=1;verticalAlign=bottom;startArrow=oval;endArrow=block;startSize=8;curved=0;rounded=0;" edge="1" parent="1">
          <mxGeometry relative="1" as="geometry">
            <mxPoint x="70" y="398" as="sourcePoint" />
            <mxPoint x="310" y="398" as="targetPoint" />
          </mxGeometry>
        </mxCell>
        <mxCell id="Yn5l3yU3Dwj1GDGnISw3-31" value="Stores as an SoundAsset" style="html=1;verticalAlign=bottom;startArrow=oval;endArrow=block;startSize=8;curved=0;rounded=0;" edge="1" parent="1">
          <mxGeometry relative="1" as="geometry">
            <mxPoint x="310" y="420" as="sourcePoint" />
            <mxPoint x="600" y="420" as="targetPoint" />
          </mxGeometry>
        </mxCell>
        <mxCell id="Yn5l3yU3Dwj1GDGnISw3-33" value="Stores in Project table" style="html=1;verticalAlign=bottom;startArrow=oval;endArrow=block;startSize=8;curved=0;rounded=0;" edge="1" parent="1">
          <mxGeometry relative="1" as="geometry">
            <mxPoint x="320" y="210" as="sourcePoint" />
            <mxPoint x="600" y="210" as="targetPoint" />
          </mxGeometry>
        </mxCell>
        <mxCell id="Yn5l3yU3Dwj1GDGnISw3-34" value="" style="line;strokeWidth=1;fillColor=none;align=left;verticalAlign=middle;spacingTop=-1;spacingLeft=3;spacingRight=3;rotatable=0;labelPosition=right;points=[];portConstraint=eastwest;strokeColor=inherit;" vertex="1" parent="1">
          <mxGeometry y="420" width="831" height="46" as="geometry" />
        </mxCell>
        <mxCell id="Yn5l3yU3Dwj1GDGnISw3-38" value="Upload a video" style="html=1;verticalAlign=bottom;startArrow=oval;endArrow=block;startSize=8;curved=0;rounded=0;" edge="1" parent="1">
          <mxGeometry relative="1" as="geometry">
            <mxPoint x="70" y="480" as="sourcePoint" />
            <mxPoint x="310" y="480" as="targetPoint" />
          </mxGeometry>
        </mxCell>
        <mxCell id="Yn5l3yU3Dwj1GDGnISw3-40" value="Stores in vimeo" style="html=1;verticalAlign=bottom;startArrow=oval;endArrow=block;startSize=8;curved=0;rounded=0;" edge="1" parent="1" target="Yn5l3yU3Dwj1GDGnISw3-20">
          <mxGeometry x="0.5659" y="5" relative="1" as="geometry">
            <mxPoint x="320" y="510" as="sourcePoint" />
            <mxPoint x="763" y="510" as="targetPoint" />
            <mxPoint as="offset" />
          </mxGeometry>
        </mxCell>
        <mxCell id="Yn5l3yU3Dwj1GDGnISw3-42" value="" style="html=1;points=[[0,0,0,0,5],[0,1,0,0,-5],[1,0,0,0,5],[1,1,0,0,-5]];perimeter=orthogonalPerimeter;outlineConnect=0;targetShapes=umlLifeline;portConstraint=eastwest;newEdgeStyle={&quot;curved&quot;:0,&quot;rounded&quot;:0};" vertex="1" parent="1">
          <mxGeometry x="305" y="480" width="10" height="30" as="geometry" />
        </mxCell>
        <mxCell id="Yn5l3yU3Dwj1GDGnISw3-44" value="Stores video URL " style="html=1;verticalAlign=bottom;startArrow=oval;endArrow=block;startSize=8;curved=0;rounded=0;" edge="1" parent="1">
          <mxGeometry relative="1" as="geometry">
            <mxPoint x="320" y="490" as="sourcePoint" />
            <mxPoint x="600" y="490" as="targetPoint" />
          </mxGeometry>
        </mxCell>
        <mxCell id="Yn5l3yU3Dwj1GDGnISw3-46" value="&lt;b&gt;Admin&lt;/b&gt;" style="text;html=1;align=center;verticalAlign=middle;resizable=0;points=[];autosize=1;strokeColor=none;fillColor=none;" vertex="1" parent="1">
          <mxGeometry x="40" y="80" width="60" height="30" as="geometry" />
        </mxCell>
        <mxCell id="Yn5l3yU3Dwj1GDGnISw3-49" value="Admin uploads a media" style="shape=note;whiteSpace=wrap;html=1;backgroundOutline=1;darkOpacity=0.05;fillColor=#d5e8d4;strokeColor=#82b366;" vertex="1" parent="1">
          <mxGeometry y="257" width="360" height="33" as="geometry" />
        </mxCell>
        <mxCell id="Yn5l3yU3Dwj1GDGnISw3-53" value="" style="shape=umlLifeline;perimeter=lifelinePerimeter;whiteSpace=wrap;html=1;container=1;dropTarget=0;collapsible=0;recursiveResize=0;outlineConnect=0;portConstraint=eastwest;newEdgeStyle={&quot;curved&quot;:0,&quot;rounded&quot;:0};participant=umlActor;fillColor=#d5e8d4;strokeColor=#82b366;" vertex="1" parent="1">
          <mxGeometry x="-701" y="66" width="20" height="790" as="geometry" />
        </mxCell>
        <mxCell id="Yn5l3yU3Dwj1GDGnISw3-54" value="&lt;b&gt;User&lt;/b&gt;" style="text;html=1;align=center;verticalAlign=middle;resizable=0;points=[];autosize=1;strokeColor=none;fillColor=none;" vertex="1" parent="1">
          <mxGeometry x="-713.5" y="106" width="45" height="26" as="geometry" />
        </mxCell>
        <mxCell id="Yn5l3yU3Dwj1GDGnISw3-55" value="User Connection" style="shape=note;whiteSpace=wrap;html=1;backgroundOutline=1;darkOpacity=0.05;fillColor=#d5e8d4;strokeColor=#82b366;" vertex="1" parent="1">
          <mxGeometry x="-760" y="172" width="360" height="29" as="geometry" />
        </mxCell>
        <mxCell id="Yn5l3yU3Dwj1GDGnISw3-56" value="Alt" style="shape=umlFrame;whiteSpace=wrap;html=1;pointerEvents=0;fillColor=#E7FFCC;" vertex="1" parent="1">
          <mxGeometry x="-760" y="201" width="543" height="200" as="geometry" />
        </mxCell>
        <mxCell id="Yn5l3yU3Dwj1GDGnISw3-58" value="Connect via URL" style="html=1;verticalAlign=bottom;startArrow=oval;endArrow=block;startSize=8;curved=0;rounded=0;entryX=0;entryY=0;entryDx=0;entryDy=5;entryPerimeter=0;" edge="1" target="Yn5l3yU3Dwj1GDGnISw3-57" parent="1">
          <mxGeometry relative="1" as="geometry">
            <mxPoint x="-695.5" y="241" as="sourcePoint" />
          </mxGeometry>
        </mxCell>
        <mxCell id="Yn5l3yU3Dwj1GDGnISw3-61" value="Return User&#39;s page" style="html=1;align=left;spacingLeft=2;endArrow=block;rounded=0;edgeStyle=orthogonalEdgeStyle;curved=0;rounded=0;" edge="1" parent="1">
          <mxGeometry relative="1" as="geometry">
            <mxPoint x="-509" y="256" as="sourcePoint" />
            <Array as="points">
              <mxPoint x="-479" y="286" />
            </Array>
            <mxPoint x="-504" y="286" as="targetPoint" />
          </mxGeometry>
        </mxCell>
        <mxCell id="Yn5l3yU3Dwj1GDGnISw3-62" value="" style="line;strokeWidth=1;fillColor=none;align=left;verticalAlign=middle;spacingTop=-1;spacingLeft=3;spacingRight=3;rotatable=0;labelPosition=right;points=[];portConstraint=eastwest;strokeColor=inherit;" vertex="1" parent="1">
          <mxGeometry x="-762" y="308" width="685" height="8" as="geometry" />
        </mxCell>
        <mxCell id="Yn5l3yU3Dwj1GDGnISw3-64" value="Scan QR code" style="html=1;verticalAlign=bottom;startArrow=oval;endArrow=block;startSize=8;curved=0;rounded=0;entryX=0;entryY=0;entryDx=0;entryDy=5;entryPerimeter=0;" edge="1" target="Yn5l3yU3Dwj1GDGnISw3-63" parent="1">
          <mxGeometry relative="1" as="geometry">
            <mxPoint x="-696" y="336" as="sourcePoint" />
          </mxGeometry>
        </mxCell>
        <mxCell id="Yn5l3yU3Dwj1GDGnISw3-66" value="Return Project&#39;s page" style="html=1;align=left;spacingLeft=2;endArrow=block;rounded=0;edgeStyle=orthogonalEdgeStyle;curved=0;rounded=0;" edge="1" parent="1">
          <mxGeometry relative="1" as="geometry">
            <mxPoint x="-513" y="353" as="sourcePoint" />
            <Array as="points">
              <mxPoint x="-483" y="383" />
            </Array>
            <mxPoint x="-508" y="383" as="targetPoint" />
          </mxGeometry>
        </mxCell>
        <mxCell id="Yn5l3yU3Dwj1GDGnISw3-79" value="App" style="shape=umlLifeline;perimeter=lifelinePerimeter;whiteSpace=wrap;html=1;container=1;dropTarget=0;collapsible=0;recursiveResize=0;outlineConnect=0;portConstraint=eastwest;newEdgeStyle={&quot;curved&quot;:0,&quot;rounded&quot;:0};fillColor=#d5e8d4;strokeColor=#82b366;" vertex="1" parent="1">
          <mxGeometry x="-558" y="66" width="100" height="815" as="geometry" />
        </mxCell>
        <mxCell id="Yn5l3yU3Dwj1GDGnISw3-57" value="" style="html=1;points=[[0,0,0,0,5],[0,1,0,0,-5],[1,0,0,0,5],[1,1,0,0,-5]];perimeter=orthogonalPerimeter;outlineConnect=0;targetShapes=umlLifeline;portConstraint=eastwest;newEdgeStyle={&quot;curved&quot;:0,&quot;rounded&quot;:0};" vertex="1" parent="Yn5l3yU3Dwj1GDGnISw3-79">
          <mxGeometry x="43" y="169" width="10" height="22" as="geometry" />
        </mxCell>
        <mxCell id="Yn5l3yU3Dwj1GDGnISw3-63" value="" style="html=1;points=[[0,0,0,0,5],[0,1,0,0,-5],[1,0,0,0,5],[1,1,0,0,-5]];perimeter=orthogonalPerimeter;outlineConnect=0;targetShapes=umlLifeline;portConstraint=eastwest;newEdgeStyle={&quot;curved&quot;:0,&quot;rounded&quot;:0};" vertex="1" parent="Yn5l3yU3Dwj1GDGnISw3-79">
          <mxGeometry x="43" y="265" width="10" height="22" as="geometry" />
        </mxCell>
        <mxCell id="Yn5l3yU3Dwj1GDGnISw3-85" value="" style="html=1;points=[[0,0,0,0,5],[0,1,0,0,-5],[1,0,0,0,5],[1,1,0,0,-5]];perimeter=orthogonalPerimeter;outlineConnect=0;targetShapes=umlLifeline;portConstraint=eastwest;newEdgeStyle={&quot;curved&quot;:0,&quot;rounded&quot;:0};" vertex="1" parent="Yn5l3yU3Dwj1GDGnISw3-79">
          <mxGeometry x="45" y="378" width="10" height="62" as="geometry" />
        </mxCell>
        <mxCell id="Yn5l3yU3Dwj1GDGnISw3-95" value="" style="html=1;points=[[0,0,0,0,5],[0,1,0,0,-5],[1,0,0,0,5],[1,1,0,0,-5]];perimeter=orthogonalPerimeter;outlineConnect=0;targetShapes=umlLifeline;portConstraint=eastwest;newEdgeStyle={&quot;curved&quot;:0,&quot;rounded&quot;:0};" vertex="1" parent="Yn5l3yU3Dwj1GDGnISw3-79">
          <mxGeometry x="45" y="491" width="10" height="40" as="geometry" />
        </mxCell>
        <mxCell id="Yn5l3yU3Dwj1GDGnISw3-96" value="Play Sound" style="html=1;align=left;spacingLeft=2;endArrow=block;rounded=0;edgeStyle=orthogonalEdgeStyle;curved=0;rounded=0;" edge="1" target="Yn5l3yU3Dwj1GDGnISw3-95" parent="Yn5l3yU3Dwj1GDGnISw3-79">
          <mxGeometry relative="1" as="geometry">
            <mxPoint x="50" y="471" as="sourcePoint" />
            <Array as="points">
              <mxPoint x="80" y="501" />
            </Array>
          </mxGeometry>
        </mxCell>
        <mxCell id="Yn5l3yU3Dwj1GDGnISw3-99" value="" style="html=1;points=[[0,0,0,0,5],[0,1,0,0,-5],[1,0,0,0,5],[1,1,0,0,-5]];perimeter=orthogonalPerimeter;outlineConnect=0;targetShapes=umlLifeline;portConstraint=eastwest;newEdgeStyle={&quot;curved&quot;:0,&quot;rounded&quot;:0};" vertex="1" parent="Yn5l3yU3Dwj1GDGnISw3-79">
          <mxGeometry x="47" y="578" width="10" height="70" as="geometry" />
        </mxCell>
        <mxCell id="Yn5l3yU3Dwj1GDGnISw3-100" value="Play Video" style="html=1;align=left;spacingLeft=2;endArrow=block;rounded=0;edgeStyle=orthogonalEdgeStyle;curved=0;rounded=0;" edge="1" target="Yn5l3yU3Dwj1GDGnISw3-99" parent="Yn5l3yU3Dwj1GDGnISw3-79">
          <mxGeometry relative="1" as="geometry">
            <mxPoint x="52" y="558" as="sourcePoint" />
            <Array as="points">
              <mxPoint x="82" y="588" />
            </Array>
          </mxGeometry>
        </mxCell>
        <mxCell id="Yn5l3yU3Dwj1GDGnISw3-83" value="DB" style="shape=umlLifeline;perimeter=lifelinePerimeter;whiteSpace=wrap;html=1;container=1;dropTarget=0;collapsible=0;recursiveResize=0;outlineConnect=0;portConstraint=eastwest;newEdgeStyle={&quot;curved&quot;:0,&quot;rounded&quot;:0};fillColor=#d5e8d4;strokeColor=#82b366;" vertex="1" parent="1">
          <mxGeometry x="-357" y="66" width="100" height="777" as="geometry" />
        </mxCell>
        <mxCell id="Yn5l3yU3Dwj1GDGnISw3-87" value="" style="html=1;points=[[0,0,0,0,5],[0,1,0,0,-5],[1,0,0,0,5],[1,1,0,0,-5]];perimeter=orthogonalPerimeter;outlineConnect=0;targetShapes=umlLifeline;portConstraint=eastwest;newEdgeStyle={&quot;curved&quot;:0,&quot;rounded&quot;:0};" vertex="1" parent="Yn5l3yU3Dwj1GDGnISw3-83">
          <mxGeometry x="44" y="400" width="10" height="29" as="geometry" />
        </mxCell>
        <mxCell id="Yn5l3yU3Dwj1GDGnISw3-86" value="Scan an image " style="html=1;verticalAlign=bottom;startArrow=oval;endArrow=block;startSize=8;curved=0;rounded=0;entryX=0;entryY=0;entryDx=0;entryDy=5;" edge="1" target="Yn5l3yU3Dwj1GDGnISw3-85" parent="1">
          <mxGeometry relative="1" as="geometry">
            <mxPoint x="-689" y="450" as="sourcePoint" />
          </mxGeometry>
        </mxCell>
        <mxCell id="Yn5l3yU3Dwj1GDGnISw3-88" value="Fetch element" style="html=1;verticalAlign=bottom;startArrow=oval;endArrow=block;startSize=8;curved=0;rounded=0;" edge="1" target="Yn5l3yU3Dwj1GDGnISw3-87" parent="1">
          <mxGeometry relative="1" as="geometry">
            <mxPoint x="-502" y="474" as="sourcePoint" />
          </mxGeometry>
        </mxCell>
        <mxCell id="Yn5l3yU3Dwj1GDGnISw3-91" value="get media (path or url)" style="html=1;verticalAlign=bottom;endArrow=block;curved=0;rounded=0;entryX=1;entryY=1;entryDx=0;entryDy=-5;entryPerimeter=0;" edge="1" parent="1">
          <mxGeometry width="80" relative="1" as="geometry">
            <mxPoint x="-307.5" y="494.5" as="sourcePoint" />
            <mxPoint x="-503" y="494.5" as="targetPoint" />
          </mxGeometry>
        </mxCell>
        <mxCell id="Yn5l3yU3Dwj1GDGnISw3-92" value="Alt" style="shape=umlFrame;whiteSpace=wrap;html=1;pointerEvents=0;fillColor=#E7FFCC;" vertex="1" parent="1">
          <mxGeometry x="-760" y="520" width="685" height="200" as="geometry" />
        </mxCell>
        <mxCell id="Yn5l3yU3Dwj1GDGnISw3-97" value="" style="line;strokeWidth=1;fillColor=none;align=left;verticalAlign=middle;spacingTop=-1;spacingLeft=3;spacingRight=3;rotatable=0;labelPosition=right;points=[];portConstraint=eastwest;strokeColor=inherit;" vertex="1" parent="1">
          <mxGeometry x="-760" y="606" width="687" height="8" as="geometry" />
        </mxCell>
        <mxCell id="Yn5l3yU3Dwj1GDGnISw3-101" value="&amp;nbsp;mute / unmute volume" style="html=1;verticalAlign=bottom;endArrow=block;curved=0;rounded=0;" edge="1" parent="1" target="Yn5l3yU3Dwj1GDGnISw3-79">
          <mxGeometry width="80" relative="1" as="geometry">
            <mxPoint x="-689" y="591" as="sourcePoint" />
            <mxPoint x="-609" y="591" as="targetPoint" />
          </mxGeometry>
        </mxCell>
        <mxCell id="Yn5l3yU3Dwj1GDGnISw3-102" value="&amp;nbsp;mute / unmute volume" style="html=1;verticalAlign=bottom;endArrow=block;curved=0;rounded=0;" edge="1" parent="1">
          <mxGeometry width="80" relative="1" as="geometry">
            <mxPoint x="-692" y="678" as="sourcePoint" />
            <mxPoint x="-511" y="678" as="targetPoint" />
          </mxGeometry>
        </mxCell>
        <mxCell id="Yn5l3yU3Dwj1GDGnISw3-109" value="Stop / Switch to fullscreen" style="html=1;verticalAlign=bottom;endArrow=block;curved=0;rounded=0;" edge="1" parent="1">
          <mxGeometry width="80" relative="1" as="geometry">
            <mxPoint x="-692" y="703" as="sourcePoint" />
            <mxPoint x="-511" y="703" as="targetPoint" />
          </mxGeometry>
        </mxCell>
      </root>
    </mxGraphModel>
  </diagram>
</mxfile>
